<svg xmlns="http://www.w3.org/2000/svg" aria-hidden="true" style="width: 0; height: 0; position: absolute;"><symbol id="icon-email" viewBox="0 0 64 64" preserveAspectRatio="xMidYMid slice"><path d="M63.125 9.977a5.004 5.004 0 0 0-4.131-2.194H5.006c-1.676 0-3.158.842-4.067 2.117l31.16 25.982L63.125 9.977z"></path><path d="M.006 14.328v36.889c0 2.75 2.25 5 5 5h53.988c2.75 0 5-2.25 5-5V14.461L32.099 41.09.006 14.328z"></path></symbol><symbol id="icon-instagram" viewBox="0 0 50 50" preserveAspectRatio="xMidYMid slice"><path d="M16 3C8.832 3 3 8.832 3 16v18c0 7.168 5.832 13 13 13h18c7.168 0 13-5.832 13-13V16c0-7.168-5.832-13-13-13H16zm0 2h18c6.086 0 11 4.914 11 11v18c0 6.086-4.914 11-11 11H16C9.914 45 5 40.086 5 34V16C5 9.914 9.914 5 16 5zm21 6a2 2 0 0 0-2 2 2 2 0 0 0 2 2 2 2 0 0 0 2-2 2 2 0 0 0-2-2zm-12 3c-6.063 0-11 4.937-11 11s4.937 11 11 11 11-4.937 11-11-4.937-11-11-11zm0 2c4.982 0 9 4.018 9 9s-4.018 9-9 9-9-4.018-9-9 4.018-9 9-9z"></path></symbol><symbol id="icon-moon" viewBox="2 2 20 20" preserveAspectRatio="xMidYMid slice"><path d="M12 22c5.523 0 10-4.477 10-10 0-.463-.694-.54-.933-.143a6.5 6.5 0 1 1-8.924-8.924C12.54 2.693 12.463 2 12 2 6.477 2 2 6.477 2 12s4.477 10 10 10Z"></path></symbol><symbol id="icon-phone" viewBox="0 0 477.156 477.156" preserveAspectRatio="xMidYMid slice"><path d="m475.009 380.316-2.375-7.156c-5.625-16.719-24.062-34.156-41-38.75l-62.688-17.125c-17-4.625-41.25 1.594-53.688 14.031l-22.688 22.688c-82.453-22.28-147.109-86.938-169.359-169.375L145.9 161.94c12.438-12.438 18.656-36.656 14.031-53.656l-17.094-62.719c-4.625-16.969-22.094-35.406-38.781-40.969L96.9 2.19c-16.719-5.563-40.563.063-53 12.5L9.962 48.659C3.899 54.69.024 71.94.024 72.003c-1.187 107.75 41.063 211.562 117.281 287.781 76.031 76.031 179.454 118.219 286.891 117.313.562 0 18.312-3.813 24.375-9.845l33.938-33.938c12.437-12.436 18.062-36.279 12.5-52.998z"></path></symbol><symbol id="icon-sun" viewBox="1 1 28 28" preserveAspectRatio="xMidYMid slice"><path d="M14.984.986A1 1 0 0 0 14 2v3a1 1 0 1 0 2 0V2A1 1 0 0 0 14.984.986zM5.797 4.8a1 1 0 0 0-.695 1.717l2.12 2.12a1 1 0 1 0 1.415-1.413L6.516 5.102a1 1 0 0 0-.72-.303zm18.375 0a1 1 0 0 0-.688.303l-2.12 2.12a1 1 0 1 0 1.413 1.415l2.121-2.121a1 1 0 0 0-.726-1.717zM15 8a7 7 0 0 0-7 7 7 7 0 0 0 7 7 7 7 0 0 0 7-7 7 7 0 0 0-7-7zM2 14a1 1 0 1 0 0 2h3a1 1 0 1 0 0-2H2zm23 0a1 1 0 1 0 0 2h3a1 1 0 1 0 0-2h-3zM7.91 21.06a1 1 0 0 0-.687.303l-2.121 2.121a1 1 0 1 0 1.414 1.414l2.12-2.12a1 1 0 0 0-.726-1.717zm14.15 0a1 1 0 0 0-.697 1.717l2.121 2.121a1 1 0 1 0 1.414-1.414l-2.12-2.12a1 1 0 0 0-.717-.303zm-7.076 2.926A1 1 0 0 0 14 25v3a1 1 0 1 0 2 0v-3a1 1 0 0 0-1.016-1.014z"></path></symbol><symbol id="icon-telegram" viewBox="0 0 50 50" preserveAspectRatio="xMidYMid slice"><path d="M25 2c12.703 0 23 10.297 23 23S37.703 48 25 48 2 37.703 2 25 12.297 2 25 2zm7.934 32.375c.423-1.298 2.405-14.234 2.65-16.783.074-.772-.17-1.285-.648-1.514-.578-.278-1.434-.139-2.427.219-1.362.491-18.774 7.884-19.78 8.312-.954.405-1.856.847-1.856 1.487 0 .45.267.703 1.003.966.766.273 2.695.858 3.834 1.172 1.097.303 2.346.04 3.046-.395.742-.461 9.305-6.191 9.92-6.693.614-.502 1.104.141.602.644-.502.502-6.38 6.207-7.155 6.997-.941.959-.273 1.953.358 2.351.721.454 5.906 3.932 6.687 4.49.781.558 1.573.811 2.298.811.725 0 1.107-.955 1.468-2.064z"></path></symbol></svg>